<?xml version="1.0" encoding="UTF-8"?><svg id="a" xmlns="http://www.w3.org/2000/svg" width="128" height="128" viewBox="0 0 38.432 38.432"><g id="b"><g id="c"><g id="d"><rect width="38.432" height="38.432" rx="7.5" ry="7.5" fill="#478cbf"/></g><g id="e"><path id="f" d="M18.08,27.809c.015,.172,2.851,.221,6.103-.648,4.099-1.095,7.078-3.169,7.815-3.698,2.4-1.723,3.661-3.338,4.086-2.932,.397,.379-.162,2.214-.72,3.507-3.408,7.894-12.874,12.305-13.613,11.395-.293-.361,.88-1.299,.621-2.527-.326-1.549-3.04-1.922-4.345-2.183-6.446-1.29-11.794-6.567-11.5-7.455,.196-.59,3.296,1.11,8.576,1.298,1.99,.07,6.33,.176,11.094-2.057,4.168-1.955,6.893-4.867,6.814-5.015-.077-.144-1.978,1.287-3.989,2.394-8.104,4.459-19.603,4.545-25.157-.4-.741-.658-2.471-2.106-2.465-4.197,.005-2.215,1.631-4.13,2.376-4.995C11.934,.888,35.66,1.393,36.869,6.498c.74,3.122-7.505,7.764-8.163,8.132-4.47,2.502-8.537,2.7-10.409,2.769-4.167,.154-11.201-.632-11.25-2.763-.045-2.012,5.674-5.067,10.782-5.307,2.153-.1,4.7,.272,4.738,.872,.079,1.24-10.495,2.675-10.475,3.635,.013,.531,3.165,.789,6.213,.401,5.077-.641,11.861-3.314,11.609-5.329-.324-2.552-11.92-4.879-20.812,.642-1.29,.801-4.635,2.679-4.5,4.9,.051,.823,.56,1.432,.961,1.836,.979,.988,3.752,3.241,10.842,3.152,2.398-.03,8.448-.35,12.938-3.176,2.287-1.439,3.544-2.495,3.544-2.495,2.55-2.064,3.294-3.3,3.786-2.986,.777,.495,.284,4.438-1.325,7.572-.31,.603-1.773,3.344-5.547,5.682-5.999,3.714-11.739,3.556-11.721,3.773Z" fill="#fff"/><path id="g" d="M37.051,19.516c-.16-.153-.348-.27-.551-.346,.034-.064,.065-.122,.094-.177,1.297-2.526,2.932-8.058,.829-9.395-.024-.016-.05-.031-.075-.046,.765-1.115,1.147-2.263,.883-3.38-1.03-4.354-10.115-4.692-12.875-4.692C17.722,1.481,7.767,3.555,2.72,9.376,1.905,10.32,.007,12.524,0,15.286c-.007,2.649,1.998,4.421,2.854,5.177l.083,.073c.752,.67,1.607,1.262,2.551,1.775-.136,.16-.231,.339-.289,.514-.257,.774,.146,1.469,.279,1.697,1.207,2.079,6.341,6.389,12.274,7.576l.382,.073c2.493,.472,2.836,.873,2.867,1.024,.044,.209-.134,.54-.29,.831-.247,.459-.76,1.412-.048,2.29,.237,.291,.682,.636,1.467,.636,2.726,0,11.254-4.797,14.519-12.358,1.668-3.867,.748-4.746,.401-5.077Zm-1.687,4.521c-3.112,7.209-11.276,11.514-13.233,11.514-.187,0-.315-.039-.38-.118-.293-.361,.88-1.299,.621-2.527-.326-1.549-3.04-1.922-4.345-2.183-6.446-1.29-11.794-6.567-11.5-7.455,.028-.086,.12-.123,.271-.123,.881,0,3.799,1.26,8.305,1.421,.373,.013,.83,.027,1.355,.027,2.278,0,5.868-.271,9.738-2.085,4.168-1.955,6.893-4.867,6.814-5.015-.004-.007-.012-.01-.022-.01-.233,0-2.05,1.348-3.967,2.404-3.984,2.192-8.789,3.328-13.305,3.328-4.669,0-9.028-1.214-11.853-3.728-.741-.658-2.471-2.106-2.465-4.197,.005-2.215,1.631-4.13,2.376-4.995C8.327,5.046,17.726,2.883,25.355,2.883c6.045,0,10.979,1.357,11.514,3.614,.74,3.122-7.505,7.764-8.163,8.132-4.47,2.502-8.537,2.7-10.409,2.769-.335,.012-.688,.019-1.055,.019-4.197,0-10.15-.821-10.195-2.781-.045-2.012,5.674-5.067,10.782-5.307,.233-.011,.472-.017,.711-.017,1.966,0,3.994,.354,4.027,.889,.079,1.24-10.495,2.675-10.475,3.635,.009,.354,1.418,.588,3.261,.588,.916,0,1.939-.058,2.952-.187,5.077-.641,11.861-3.314,11.609-5.329-.179-1.403-3.765-2.738-8.434-2.738-3.824,0-8.375,.895-12.379,3.381-1.29,.801-4.635,2.679-4.5,4.9,.051,.823,.56,1.432,.961,1.836,.96,.969,3.646,3.155,10.436,3.155,.134,0,.27,0,.406-.003,2.398-.03,8.448-.35,12.938-3.176,2.287-1.439,3.544-2.495,3.544-2.495,2.285-1.85,3.12-3.034,3.623-3.034,.058,0,.111,.016,.163,.048,.777,.495,.284,4.438-1.325,7.572-.31,.603-1.773,3.344-5.547,5.682-5.999,3.714-11.739,3.556-11.721,3.773,.005,.058,.327,.102,.877,.102,1.088,0,3.065-.172,5.226-.75,4.099-1.095,7.078-3.169,7.815-3.698,2.146-1.54,3.382-2.995,3.923-2.995,.064,0,.118,.021,.163,.064,.397,.379-.162,2.214-.72,3.507Z" fill="#478cbf"/></g></g></g></svg>