<?xml version="1.0" encoding="UTF-8"?><svg id="a" xmlns="http://www.w3.org/2000/svg" viewBox="0 0 166 34.3"><g id="b"><g id="c"><g><path id="d" d="M152.97,5.682H13.03C6.386,5.682,1,10.971,1,17.495s5.386,11.813,12.03,11.813H152.97c6.644,0,12.03-5.289,12.03-11.813s-5.386-11.813-12.03-11.813Z" fill="none" stroke="#478cbf" stroke-width="1.99"/><path id="e" d="M92.795,25.627c.015,.17,2.816,.218,6.029-.639,4.049-1.081,6.992-3.127,7.721-3.649,2.371-1.7,3.617-3.293,4.037-2.892,.393,.374-.16,2.185-.711,3.46-3.367,7.789-12.719,12.14-13.449,11.243-.29-.357,.869-1.282,.613-2.494-.322-1.528-3.003-1.895-4.293-2.153-6.368-1.273-11.651-6.48-11.361-7.356,.193-.582,3.256,1.094,8.472,1.28,1.966,.07,6.254,.174,10.96-2.03,4.118-1.928,6.81-4.802,6.732-4.948-.076-.142-1.953,1.27-3.941,2.362-8.006,4.399-19.366,4.484-24.854-.395-.732-.65-2.44-2.079-2.435-4.141,.005-2.186,1.611-4.075,2.348-4.928C86.723-.934,110.163-.435,111.358,4.602c.731,3.081-7.415,7.66-8.065,8.023-4.416,2.468-8.433,2.664-10.284,2.732-4.117,.152-11.066-.623-11.114-2.726-.045-1.985,5.605-4.999,10.652-5.235,2.127-.099,4.643,.268,4.681,.86,.078,1.224-10.369,2.639-10.349,3.586,.013,.524,3.127,.779,6.138,.396,5.017-.632,11.719-3.269,11.469-5.258-.32-2.518-11.776-4.813-20.562,.634-1.274,.79-4.578,2.643-4.445,4.835,.05,.812,.553,1.412,.949,1.811,.966,.975,3.707,3.197,10.71,3.11,2.37-.03,8.347-.345,12.782-3.134,2.259-1.42,3.501-2.461,3.501-2.461,2.52-2.037,3.255-3.257,3.741-2.947,.769,.488,.281,4.378-1.309,7.47-.306,.596-1.752,3.299-5.48,5.606-5.926,3.665-11.598,3.508-11.579,3.722Z" fill="none" stroke="#478cbf" stroke-width="1.99"/></g><g><path id="f" d="M152.97,5.682H13.03C6.386,5.682,1,10.971,1,17.495s5.386,11.813,12.03,11.813H152.97c6.644,0,12.03-5.289,12.03-11.813s-5.386-11.813-12.03-11.813Z" fill="#478cbf"/><path id="g" d="M92.795,25.627c.015,.17,2.816,.218,6.029-.639,4.049-1.081,6.992-3.127,7.721-3.649,2.371-1.7,3.617-3.293,4.037-2.892,.393,.374-.16,2.185-.711,3.46-3.367,7.789-12.719,12.14-13.449,11.243-.29-.357,.869-1.282,.613-2.494-.322-1.528-3.003-1.895-4.293-2.153-6.368-1.273-11.651-6.48-11.361-7.356,.193-.582,3.256,1.094,8.472,1.28,1.966,.07,6.254,.174,10.96-2.03,4.118-1.928,6.81-4.802,6.732-4.948-.076-.142-1.953,1.27-3.941,2.362-8.006,4.399-19.366,4.484-24.854-.395-.732-.65-2.44-2.079-2.435-4.141,.005-2.186,1.611-4.075,2.348-4.928C86.723-.934,110.163-.435,111.358,4.602c.731,3.081-7.415,7.66-8.065,8.023-4.416,2.468-8.433,2.664-10.284,2.732-4.117,.152-11.066-.623-11.114-2.726-.045-1.985,5.605-4.999,10.652-5.235,2.127-.099,4.643,.268,4.681,.86,.078,1.224-10.369,2.639-10.349,3.586,.013,.524,3.127,.779,6.138,.396,5.017-.632,11.719-3.269,11.469-5.258-.32-2.518-11.776-4.813-20.562,.634-1.274,.79-4.578,2.643-4.445,4.835,.05,.812,.553,1.412,.949,1.811,.966,.975,3.707,3.197,10.71,3.11,2.37-.03,8.347-.345,12.782-3.134,2.259-1.42,3.501-2.461,3.501-2.461,2.52-2.037,3.255-3.257,3.741-2.947,.769,.488,.281,4.378-1.309,7.47-.306,.596-1.752,3.299-5.48,5.606-5.926,3.665-11.598,3.508-11.579,3.722Z" fill="#fff"/></g></g><g id="h"><g id="i"><path d="M114.621,23.118c0-.42,.123-.908,.369-1.465s.514-.937,.803-1.14c.551,.405,1.107,.607,1.672,.607l.673-.108c.782-.231,1.187-.854,1.216-1.867v-5.536h-1.736c-.246,0-.42-.311-.521-.933-.043-.304-.064-.615-.064-.934s.021-.629,.064-.934c.102-.622,.275-.934,.521-.934h5.166c.29,0,.507,.083,.651,.25s.218,.366,.218,.597v10.247c0,1.418-.475,2.497-1.422,3.235-.948,.738-2.084,1.107-3.408,1.107s-2.355-.195-3.094-.586c-.738-.391-1.107-.926-1.107-1.606Z" fill="#fff"/><path d="M131.999,25.289c-2.033,0-3.69-.666-4.972-1.998-1.28-1.331-1.921-3.274-1.921-5.829s.647-4.49,1.942-5.807c1.296-1.317,2.967-1.976,5.016-1.976s3.701,.648,4.96,1.943c1.259,1.295,1.889,3.256,1.889,5.883s-.645,4.581-1.932,5.861c-1.289,1.281-2.949,1.921-4.982,1.921Zm.011-11.441c-.694,0-1.277,.319-1.748,.956-.47,.637-.705,1.53-.705,2.681s.225,2.034,.673,2.648c.448,.616,1.038,.923,1.77,.923s1.324-.311,1.78-.934c.455-.622,.684-1.512,.684-2.67s-.235-2.048-.706-2.67c-.47-.622-1.053-.934-1.747-.934Z" fill="#fff"/><path d="M140.432,23.791V10.288c0-.304,.734-.456,2.204-.456s2.203,.152,2.203,.456v10.637h3.343c.261,0,.441,.34,.543,1.021,.043,.333,.065,.673,.065,1.02s-.022,.702-.065,1.064c-.116,.695-.304,1.042-.564,1.042h-6.687c-.318,0-.571-.13-.76-.391-.188-.261-.282-.557-.282-.89Z" fill="#fff"/><path d="M155.868,24.724c0,.29-.717,.434-2.149,.434s-2.149-.145-2.149-.434V13.826h-2.604c-.247,0-.42-.333-.521-.999-.043-.318-.065-.644-.065-.977s.022-.658,.065-.977c.102-.666,.274-.999,.521-.999h9.443c.245,0,.419,.333,.521,.999,.043,.318,.065,.644,.065,.977s-.022,.659-.065,.977c-.102,.666-.275,.999-.521,.999h-2.54v10.898Z" fill="#fff"/></g><path id="j" d="M15.332,17.02c-1.173-.018-2.516,.226-2.516,.226v2.29h1.35l-.015,1.021c0,.378-.375,.568-1.123,.568s-1.41-.317-1.983-.949c-.575-.633-.861-1.558-.861-2.778s.279-2.123,.839-2.704c.558-.581,1.29-.872,2.19-.872,.378,0,.77,.061,1.177,.186,.407,.123,.679,.239,.818,.347,.138,.111,.269,.164,.392,.164s.323-.144,.598-.435c.276-.291,.524-.731,.742-1.318,.217-.59,.326-1.042,.326-1.363,0-.318-.007-.538-.021-.654-.305-.334-.869-.599-1.69-.796-.82-.196-1.74-.294-2.757-.294-2.238,0-3.988,.705-5.252,2.114-1.265,1.41-1.896,3.24-1.896,5.492,0,2.645,.646,4.65,1.938,6.016,1.295,1.366,2.994,2.048,5.101,2.048,1.133,0,2.139-.097,3.018-.294,.88-.196,1.464-.396,1.755-.599l.087-6.82c0-.396-1.046-.576-2.219-.596m54.744,7.745c0,.289-.718,.435-2.157,.435s-2.158-.147-2.158-.435V13.823h-2.615c-.247,0-.422-.333-.523-1.003-.044-.319-.064-.645-.064-.98,0-.333,.021-.661,.064-.98,.101-.668,.276-1.004,.523-1.004h9.481c.247,0,.421,.336,.524,1.004,.043,.319,.065,.647,.065,.98,0,.335-.022,.661-.065,.98-.103,.67-.277,1.003-.524,1.003h-2.55v10.942Zm-15.054-10.92c-.697,0-1.283,.32-1.756,.959-.471,.639-.707,1.536-.707,2.691s.226,2.043,.675,2.66c.45,.619,1.042,.927,1.776,.927s1.33-.312,1.787-.939c.458-.624,.687-1.518,.687-2.681s-.236-2.057-.709-2.681c-.472-.624-1.057-.936-1.755-.936m-.011,11.485c-2.042,0-3.705-.668-4.99-2.004-1.286-1.337-1.929-3.288-1.929-5.852s.65-4.509,1.95-5.832c1.301-1.321,2.979-1.982,5.036-1.982s3.715,.649,4.98,1.951c1.264,1.3,1.896,3.27,1.896,5.905s-.647,4.599-1.94,5.886c-1.293,1.285-2.961,1.927-5.002,1.927m-15.855-11.334v6.519c0,.304,.022,.496,.066,.577,.043,.08,.174,.12,.392,.12,.8,0,1.406-.299,1.82-.895,.415-.595,.621-1.586,.621-2.974s-.215-2.293-.642-2.713c-.429-.421-1.109-.634-2.039-.634h-.218Zm-4.184,10.114V11.034c0-.364,.09-.65,.273-.863,.181-.209,.417-.316,.709-.316h3.64c2.31,0,4.064,.583,5.262,1.745,1.2,1.162,1.8,2.992,1.8,5.492,0,5.347-2.282,8.02-6.845,8.02h-3.726c-.741,0-1.112-.333-1.112-1.002m-8.856-10.265c-.697,0-1.281,.32-1.755,.959-.471,.639-.708,1.536-.708,2.691s.225,2.043,.676,2.66c.45,.619,1.042,.927,1.776,.927s1.329-.312,1.787-.939c.458-.624,.687-1.518,.687-2.681s-.237-2.057-.709-2.681c-.472-.624-1.057-.936-1.755-.936m-.011,11.485c-2.041,0-3.705-.668-4.992-2.004-1.285-1.337-1.927-3.288-1.927-5.852s.65-4.509,1.95-5.832c1.3-1.321,2.979-1.982,5.035-1.982s3.716,.649,4.979,1.951c1.265,1.3,1.897,3.27,1.897,5.905s-.646,4.599-1.94,5.886c-1.294,1.285-2.96,1.927-5.002,1.927" fill="#fff"/></g></g></svg>