<?xml version="1.0" encoding="UTF-8"?><svg id="a" xmlns="http://www.w3.org/2000/svg" viewBox="0 0 166 35.471"><g id="b"><g id="c"><path id="d" d="M153.823,5.779H12.177C5.452,5.779,0,11.132,0,17.735s5.452,11.957,12.177,11.957H153.823c6.725,0,12.177-5.353,12.177-11.957s-5.452-11.957-12.177-11.957Z" fill="#478cbf"/><g id="e"><path id="f" d="M92.914,26.328c.015,.172,2.851,.221,6.103-.648,4.099-1.095,7.078-3.169,7.815-3.698,2.4-1.723,3.661-3.338,4.086-2.932,.397,.379-.162,2.214-.72,3.507-3.408,7.894-12.874,12.305-13.613,11.395-.293-.361,.88-1.299,.621-2.527-.326-1.549-3.04-1.922-4.345-2.183-6.446-1.29-11.794-6.567-11.5-7.455,.196-.59,3.296,1.11,8.576,1.298,1.99,.07,6.33,.176,11.094-2.057,4.168-1.955,6.893-4.867,6.814-5.015-.077-.144-1.978,1.287-3.989,2.394-8.104,4.459-19.603,4.545-25.157-.4-.741-.658-2.471-2.106-2.465-4.197,.005-2.215,1.631-4.13,2.376-4.995C86.768-.594,110.494-.088,111.703,5.017c.74,3.122-7.505,7.764-8.163,8.132-4.47,2.502-8.537,2.7-10.409,2.769-4.167,.154-11.201-.632-11.25-2.763-.045-2.012,5.674-5.067,10.782-5.307,2.153-.1,4.7,.272,4.738,.872,.079,1.24-10.495,2.675-10.475,3.635,.013,.531,3.165,.789,6.213,.401,5.077-.641,11.861-3.314,11.609-5.329-.324-2.552-11.92-4.879-20.812,.642-1.29,.801-4.635,2.679-4.5,4.9,.051,.823,.56,1.432,.961,1.836,.979,.988,3.752,3.241,10.842,3.152,2.398-.03,8.448-.35,12.938-3.176,2.287-1.439,3.544-2.495,3.544-2.495,2.55-2.064,3.294-3.3,3.786-2.986,.777,.495,.284,4.438-1.325,7.572-.31,.603-1.773,3.344-5.547,5.682-5.999,3.714-11.739,3.556-11.721,3.773Z" fill="#fff"/><path id="g" d="M111.885,18.035c-.16-.153-.348-.27-.551-.346,.034-.064,.065-.122,.094-.177,1.297-2.526,2.932-8.058,.829-9.395-.024-.016-.05-.031-.075-.046,.765-1.115,1.147-2.263,.883-3.38-1.03-4.354-10.115-4.692-12.875-4.692-7.634,0-17.589,2.074-22.636,7.894-.814,.945-2.713,3.149-2.72,5.91-.007,2.649,1.998,4.421,2.854,5.177l.083,.073c.752,.67,1.607,1.262,2.551,1.775-.136,.16-.231,.339-.289,.514-.257,.774,.146,1.469,.279,1.697,1.207,2.079,6.341,6.389,12.274,7.576l.382,.073c2.493,.472,2.836,.873,2.867,1.024,.044,.209-.134,.54-.29,.831-.247,.459-.76,1.412-.048,2.29,.237,.291,.682,.636,1.467,.636,2.726,0,11.254-4.797,14.519-12.358,1.668-3.867,.748-4.746,.401-5.077Zm-1.687,4.521c-3.112,7.209-11.276,11.514-13.233,11.514-.187,0-.315-.039-.38-.118-.293-.361,.88-1.299,.621-2.527-.326-1.549-3.04-1.922-4.345-2.183-6.446-1.29-11.794-6.567-11.5-7.455,.028-.086,.12-.123,.271-.123,.881,0,3.799,1.26,8.305,1.421,.373,.013,.83,.027,1.355,.027,2.278,0,5.868-.271,9.738-2.085,4.168-1.955,6.893-4.867,6.814-5.015-.004-.007-.012-.01-.022-.01-.233,0-2.05,1.348-3.967,2.404-3.984,2.192-8.789,3.328-13.305,3.328-4.669,0-9.028-1.214-11.853-3.728-.741-.658-2.471-2.106-2.465-4.197,.005-2.215,1.631-4.13,2.376-4.995,4.551-5.248,13.949-7.411,21.579-7.411,6.045,0,10.979,1.357,11.514,3.614,.74,3.122-7.505,7.764-8.163,8.132-4.47,2.502-8.537,2.7-10.409,2.769-.335,.012-.688,.019-1.055,.019-4.197,0-10.15-.821-10.195-2.781-.045-2.012,5.674-5.067,10.782-5.307,.233-.011,.472-.017,.711-.017,1.966,0,3.994,.354,4.027,.889,.079,1.24-10.495,2.675-10.475,3.635,.009,.354,1.418,.588,3.261,.588,.916,0,1.939-.058,2.952-.187,5.077-.641,11.861-3.314,11.609-5.329-.179-1.403-3.765-2.738-8.434-2.738-3.824,0-8.375,.895-12.379,3.381-1.29,.801-4.635,2.679-4.5,4.9,.051,.823,.56,1.432,.961,1.836,.96,.969,3.646,3.155,10.436,3.155,.134,0,.27,0,.406-.003,2.398-.03,8.448-.35,12.938-3.176,2.287-1.439,3.544-2.495,3.544-2.495,2.285-1.85,3.12-3.034,3.623-3.034,.058,0,.111,.016,.163,.048,.777,.495,.284,4.438-1.325,7.572-.31,.603-1.773,3.344-5.547,5.682-5.999,3.714-11.739,3.556-11.721,3.773,.005,.058,.327,.102,.877,.102,1.088,0,3.065-.172,5.226-.75,4.099-1.095,7.078-3.169,7.815-3.698,2.146-1.54,3.382-2.995,3.923-2.995,.064,0,.118,.021,.163,.064,.397,.379-.162,2.214-.72,3.507Z" fill="#478cbf"/></g></g><g id="h"><g id="i"><path d="M115.007,23.426c0-.425,.124-.919,.373-1.483,.249-.563,.52-.948,.813-1.153,.556,.41,1.12,.615,1.691,.615l.682-.11c.791-.234,1.2-.864,1.23-1.89v-5.604h-1.758c-.25,0-.426-.315-.527-.945-.044-.308-.066-.623-.066-.945s.022-.637,.066-.945c.102-.63,.277-.945,.527-.945h5.229c.293,0,.513,.084,.659,.252,.146,.169,.22,.37,.22,.604v10.372c0,1.436-.48,2.527-1.439,3.274-.96,.747-2.109,1.121-3.45,1.121s-2.384-.198-3.131-.593-1.12-.938-1.12-1.626Z" fill="#fff"/><path d="M132.596,25.624c-2.059,0-3.735-.674-5.032-2.021-1.296-1.348-1.944-3.314-1.944-5.9s.655-4.545,1.967-5.878c1.311-1.333,3.003-2,5.076-2s3.746,.656,5.021,1.967,1.912,3.296,1.912,5.955-.652,4.636-1.956,5.933-2.985,1.945-5.043,1.945Zm.011-11.58c-.703,0-1.293,.322-1.769,.967-.477,.645-.714,1.549-.714,2.714s.227,2.058,.681,2.681c.454,.623,1.051,.934,1.791,.934s1.341-.315,1.802-.945c.462-.63,.692-1.531,.692-2.703s-.238-2.072-.714-2.703c-.477-.629-1.066-.945-1.77-.945Z" fill="#fff"/><path d="M141.133,24.107V10.44c0-.308,.743-.461,2.23-.461s2.23,.154,2.23,.461v10.767h3.384c.264,0,.446,.344,.549,1.033,.044,.337,.066,.681,.066,1.033s-.022,.71-.066,1.077c-.117,.703-.308,1.055-.571,1.055h-6.768c-.322,0-.579-.132-.769-.396-.191-.264-.286-.564-.286-.901Z" fill="#fff"/><path d="M156.756,25.052c0,.293-.726,.439-2.176,.439s-2.175-.146-2.175-.439V14.021h-2.637c-.25,0-.426-.337-.527-1.011-.044-.322-.066-.651-.066-.989s.022-.667,.066-.989c.102-.674,.277-1.011,.527-1.011h9.558c.249,0,.425,.337,.527,1.011,.044,.322,.066,.652,.066,.989s-.022,.667-.066,.989c-.103,.674-.278,1.011-.527,1.011h-2.57v11.031Z" fill="#fff"/></g><path id="j" d="M14.608,17.255c-1.188-.018-2.547,.229-2.547,.229v2.318h1.367l-.015,1.033c0,.383-.379,.575-1.136,.575s-1.427-.321-2.008-.961c-.582-.641-.871-1.577-.871-2.811s.283-2.148,.849-2.737c.565-.588,1.306-.883,2.217-.883,.383,0,.779,.062,1.191,.188,.412,.125,.688,.242,.828,.352,.139,.113,.272,.166,.397,.166s.327-.146,.606-.441c.28-.294,.53-.74,.751-1.334,.22-.597,.33-1.055,.33-1.38,0-.322-.007-.544-.021-.662-.309-.338-.879-.606-1.711-.805-.83-.199-1.761-.297-2.79-.297-2.265,0-4.037,.713-5.316,2.14-1.28,1.427-1.919,3.279-1.919,5.559,0,2.677,.654,4.707,1.962,6.089,1.31,1.382,3.031,2.073,5.163,2.073,1.147,0,2.165-.099,3.054-.297,.89-.198,1.482-.401,1.777-.607l.088-6.903c0-.401-1.059-.583-2.246-.604m55.411,7.839c0,.292-.727,.441-2.184,.441s-2.185-.148-2.185-.441V14.019h-2.647c-.25,0-.427-.337-.53-1.016-.044-.323-.065-.653-.065-.992,0-.337,.021-.669,.065-.992,.103-.676,.279-1.016,.53-1.016h9.596c.25,0,.426,.34,.53,1.016,.043,.323,.065,.655,.065,.992,0,.339-.022,.669-.065,.992-.104,.678-.28,1.016-.53,1.016h-2.581v11.075Zm-15.237-11.053c-.706,0-1.298,.324-1.777,.971-.477,.647-.716,1.555-.716,2.723s.228,2.068,.684,2.692c.455,.627,1.055,.939,1.798,.939s1.346-.316,1.809-.95c.463-.632,.696-1.536,.696-2.713s-.239-2.082-.717-2.714c-.478-.632-1.069-.947-1.776-.947m-.011,11.625c-2.067,0-3.75-.676-5.051-2.028-1.302-1.353-1.953-3.328-1.953-5.923s.658-4.564,1.974-5.903c1.317-1.337,3.015-2.007,5.097-2.007s3.761,.657,5.041,1.975c1.28,1.316,1.919,3.31,1.919,5.977s-.654,4.655-1.964,5.958c-1.309,1.3-2.997,1.95-5.063,1.95m-16.048-11.472v6.598c0,.308,.023,.502,.067,.584,.044,.081,.176,.122,.396,.122,.81,0,1.423-.302,1.842-.905,.42-.602,.628-1.605,.628-3.01s-.217-2.321-.65-2.746c-.434-.427-1.122-.642-2.064-.642h-.221Zm-4.235,10.237V11.196c0-.368,.091-.658,.276-.874,.183-.212,.422-.32,.717-.32h3.684c2.338,0,4.114,.59,5.326,1.766,1.214,1.176,1.821,3.028,1.821,5.558,0,5.413-2.31,8.118-6.928,8.118h-3.772c-.75,0-1.125-.337-1.125-1.015m-8.964-10.39c-.706,0-1.297,.324-1.776,.971-.477,.647-.717,1.555-.717,2.723s.228,2.068,.684,2.692c.456,.627,1.055,.939,1.798,.939s1.346-.316,1.809-.95c.463-.632,.695-1.536,.695-2.713s-.24-2.082-.718-2.714c-.477-.632-1.069-.947-1.776-.947m-.011,11.625c-2.066,0-3.751-.676-5.053-2.028-1.3-1.353-1.951-3.328-1.951-5.923s.658-4.564,1.974-5.903c1.316-1.337,3.015-2.007,5.096-2.007s3.762,.657,5.04,1.975c1.281,1.316,1.92,3.31,1.92,5.977s-.654,4.655-1.964,5.958c-1.31,1.3-2.996,1.95-5.063,1.95" fill="#fff"/></g></g></svg>